<?xml version="1.0" encoding="UTF-8"?>
<!DOCTYPE svg PUBLIC "-//W3C//DTD SVG 1.1//EN" "http://www.w3.org/Graphics/SVG/1.1/DTD/svg11.dtd">
<svg xmlns="http://www.w3.org/2000/svg" version="1.1" width="16px" height="16px" style="shape-rendering:geometricPrecision; text-rendering:geometricPrecision; image-rendering:optimizeQuality; fill-rule:evenodd; clip-rule:evenodd" xmlns:xlink="http://www.w3.org/1999/xlink">
<g><path style="opacity:0.402" fill="#000000" d="M 5.5,-0.5 C 6.83333,-0.5 8.16667,-0.5 9.5,-0.5C 9.36899,0.238911 9.53566,0.905578 10,1.5C 13.8333,-1.11022e-16 15,1.16667 13.5,5C 14.0944,5.46434 14.7611,5.63101 15.5,5.5C 15.5,6.83333 15.5,8.16667 15.5,9.5C 14.7611,9.36899 14.0944,9.53566 13.5,10C 15,13.8333 13.8333,15 10,13.5C 9.53566,14.0944 9.36899,14.7611 9.5,15.5C 8.16667,15.5 6.83333,15.5 5.5,15.5C 5.63101,14.7611 5.46434,14.0944 5,13.5C 1.16667,15 -1.11022e-16,13.8333 1.5,10C 0.905578,9.53566 0.238911,9.36899 -0.5,9.5C -0.5,8.16667 -0.5,6.83333 -0.5,5.5C 0.238911,5.63101 0.905578,5.46434 1.5,5C -1.11022e-16,1.16667 1.16667,-1.11022e-16 5,1.5C 5.46434,0.905578 5.63101,0.238911 5.5,-0.5 Z M 9.5,3.5 C 8.16667,3.5 6.83333,3.5 5.5,3.5C 6.83333,-0.5 8.16667,-0.5 9.5,3.5 Z M 3.5,3.5 C 4.16667,3.5 4.83333,3.5 5.5,3.5C 5.16667,4.5 4.5,5.16667 3.5,5.5C 3.5,4.83333 3.5,4.16667 3.5,3.5 Z M 9.5,3.5 C 10.1667,3.5 10.8333,3.5 11.5,3.5C 11.5,4.16667 11.5,4.83333 11.5,5.5C 10.5,5.16667 9.83333,4.5 9.5,3.5 Z M 3.5,5.5 C 3.5,6.83333 3.5,8.16667 3.5,9.5C -0.5,8.16667 -0.5,6.83333 3.5,5.5 Z M 6.5,5.5 C 9.86057,6.20318 10.1939,7.53651 7.5,9.5C 5.35765,8.56289 5.02431,7.22955 6.5,5.5 Z M 11.5,5.5 C 15.5,6.83333 15.5,8.16667 11.5,9.5C 11.5,8.16667 11.5,6.83333 11.5,5.5 Z M 3.5,9.5 C 4.5,9.83333 5.16667,10.5 5.5,11.5C 4.83333,11.5 4.16667,11.5 3.5,11.5C 3.5,10.8333 3.5,10.1667 3.5,9.5 Z M 11.5,9.5 C 11.5,10.1667 11.5,10.8333 11.5,11.5C 10.8333,11.5 10.1667,11.5 9.5,11.5C 9.83333,10.5 10.5,9.83333 11.5,9.5 Z M 5.5,11.5 C 6.83333,11.5 8.16667,11.5 9.5,11.5C 8.16667,15.5 6.83333,15.5 5.5,11.5 Z"/></g>
<g><path style="opacity:0.305" fill="#000000" d="M 5.5,3.5 C 6.83333,3.5 8.16667,3.5 9.5,3.5C 9.83333,4.5 10.5,5.16667 11.5,5.5C 11.5,6.83333 11.5,8.16667 11.5,9.5C 10.5,9.83333 9.83333,10.5 9.5,11.5C 8.16667,11.5 6.83333,11.5 5.5,11.5C 5.16667,10.5 4.5,9.83333 3.5,9.5C 3.5,8.16667 3.5,6.83333 3.5,5.5C 4.5,5.16667 5.16667,4.5 5.5,3.5 Z M 6.5,5.5 C 5.02431,7.22955 5.35765,8.56289 7.5,9.5C 10.1939,7.53651 9.86057,6.20318 6.5,5.5 Z"/></g>
</svg>
