<svg width="118" height="79" viewBox="0 0 118 79" fill="none" xmlns="http://www.w3.org/2000/svg">
<g filter="url(#filter0_d_1_1711)">
<rect x="20" y="13" width="78" height="39" rx="15" fill="#F1EDFD"/>
</g>
<path d="M43.5 41C38.2533 41 34 36.5228 34 31C34 25.4772 38.2533 21 43.5 21C48.7467 21 53 25.4772 53 31C53 36.5228 48.7467 41 43.5 41Z" stroke="#463D61" stroke-width="2" stroke-linecap="round" stroke-linejoin="round"/>
<path d="M46 27.8C45.3635 27.2839 44.5694 27.0015 43.75 27C41.679 27 40 28.79 40 31C40 33.21 41.679 35 43.75 35C44.594 35 45.373 34.702 46 34.2" stroke="#463D61" stroke-width="2" stroke-linecap="round" stroke-linejoin="round"/>
<path d="M43 21C47.333 21 56 22 56 31C56 40 47.333 41 43 41" stroke="#463D61" stroke-width="2"/>
<path d="M66.7522 37C66.7522 36.496 66.7942 36.034 66.8782 35.614C66.9622 35.182 67.1062 34.774 67.3102 34.39C67.5262 34.006 67.8202 33.646 68.1922 33.31C68.5762 32.962 69.0622 32.632 69.6502 32.32C70.0702 32.08 70.4662 31.87 70.8382 31.69C71.2102 31.498 71.5402 31.312 71.8282 31.132C72.1162 30.94 72.3382 30.736 72.4942 30.52C72.6622 30.304 72.7462 30.058 72.7462 29.782C72.7462 29.518 72.6742 29.272 72.5302 29.044C72.3862 28.816 72.1702 28.636 71.8822 28.504C71.5942 28.36 71.2462 28.288 70.8382 28.288C70.5142 28.288 70.2142 28.33 69.9382 28.414C69.6742 28.498 69.4282 28.612 69.2002 28.756C68.9842 28.888 68.7862 29.038 68.6062 29.206C68.4262 29.362 68.2702 29.518 68.1382 29.674L66.8962 28.252C67.0162 28.108 67.2022 27.946 67.4542 27.766C67.7182 27.574 68.0302 27.388 68.3902 27.208C68.7622 27.016 69.1822 26.86 69.6502 26.74C70.1182 26.608 70.6282 26.542 71.1802 26.542C71.9602 26.542 72.6262 26.674 73.1782 26.938C73.7302 27.19 74.1502 27.544 74.4382 28C74.7382 28.444 74.8882 28.948 74.8882 29.512C74.8882 29.956 74.7982 30.346 74.6182 30.682C74.4502 31.018 74.2282 31.318 73.9522 31.582C73.6762 31.834 73.3822 32.056 73.0702 32.248C72.7702 32.428 72.4882 32.59 72.2242 32.734C71.7562 32.962 71.3482 33.172 71.0002 33.364C70.6642 33.556 70.3762 33.748 70.1362 33.94C69.8962 34.12 69.6982 34.312 69.5422 34.516C69.3862 34.708 69.2542 34.942 69.1462 35.218H75.0862V37H66.7522ZM86.0451 31.726C86.0451 32.782 85.8411 33.724 85.4331 34.552C85.0371 35.368 84.4911 36.01 83.7951 36.478C83.1111 36.946 82.3251 37.18 81.4371 37.18C80.5611 37.18 79.7751 36.946 79.0791 36.478C78.3831 36.01 77.8311 35.368 77.4231 34.552C77.0271 33.724 76.8291 32.782 76.8291 31.726C76.8291 30.67 77.0271 29.734 77.4231 28.918C77.8311 28.09 78.3831 27.442 79.0791 26.974C79.7751 26.494 80.5611 26.254 81.4371 26.254C82.3251 26.254 83.1111 26.494 83.7951 26.974C84.4911 27.442 85.0371 28.09 85.4331 28.918C85.8411 29.734 86.0451 30.67 86.0451 31.726ZM84.0291 31.726C84.0291 31.006 83.9211 30.376 83.7051 29.836C83.4891 29.284 83.1831 28.858 82.7871 28.558C82.3911 28.246 81.9411 28.09 81.4371 28.09C80.9211 28.09 80.4651 28.246 80.0691 28.558C79.6731 28.858 79.3611 29.284 79.1331 29.836C78.9171 30.376 78.8091 31.006 78.8091 31.726C78.8091 32.446 78.9171 33.076 79.1331 33.616C79.3611 34.156 79.6731 34.582 80.0691 34.894C80.4651 35.194 80.9211 35.344 81.4371 35.344C81.9411 35.344 82.3851 35.194 82.7691 34.894C83.1651 34.582 83.4711 34.156 83.6871 33.616C83.9151 33.076 84.0291 32.446 84.0291 31.726Z" fill="#463D61"/>
<defs>
<filter id="filter0_d_1_1711" x="0" y="0" width="118" height="79" filterUnits="userSpaceOnUse" color-interpolation-filters="sRGB">
<feFlood flood-opacity="0" result="BackgroundImageFix"/>
<feColorMatrix in="SourceAlpha" type="matrix" values="0 0 0 0 0 0 0 0 0 0 0 0 0 0 0 0 0 0 127 0" result="hardAlpha"/>
<feOffset dy="7"/>
<feGaussianBlur stdDeviation="10"/>
<feComposite in2="hardAlpha" operator="out"/>
<feColorMatrix type="matrix" values="0 0 0 0 0 0 0 0 0 0 0 0 0 0 0 0 0 0 0.07 0"/>
<feBlend mode="normal" in2="BackgroundImageFix" result="effect1_dropShadow_1_1711"/>
<feBlend mode="normal" in="SourceGraphic" in2="effect1_dropShadow_1_1711" result="shape"/>
</filter>
</defs>
</svg>
