<svg width="76" height="76" viewBox="0 0 76 76" fill="none" xmlns="http://www.w3.org/2000/svg">
<path d="M45.75 27C47.5449 27 49 28.4551 49 30.25V45.75C49 47.5449 47.5449 49 45.75 49H30.25C28.4551 49 27 47.5449 27 45.75V30.25C27 28.4551 28.4551 27 30.25 27H45.75ZM47.5 33.503H28.5V45.75C28.5 46.7165 29.2835 47.5 30.25 47.5H45.75C46.7165 47.5 47.5 46.7165 47.5 45.75V33.503ZM32.7488 41.5014C33.4391 41.5014 33.9988 42.0611 33.9988 42.7514C33.9988 43.4418 33.4391 44.0014 32.7488 44.0014C32.0584 44.0014 31.4988 43.4418 31.4988 42.7514C31.4988 42.0611 32.0584 41.5014 32.7488 41.5014ZM38.0033 41.5014C38.6936 41.5014 39.2533 42.0611 39.2533 42.7514C39.2533 43.4418 38.6936 44.0014 38.0033 44.0014C37.3129 44.0014 36.7533 43.4418 36.7533 42.7514C36.7533 42.0611 37.3129 41.5014 38.0033 41.5014ZM32.7488 36.5014C33.4391 36.5014 33.9988 37.0611 33.9988 37.7514C33.9988 38.4418 33.4391 39.0014 32.7488 39.0014C32.0584 39.0014 31.4988 38.4418 31.4988 37.7514C31.4988 37.0611 32.0584 36.5014 32.7488 36.5014ZM38.0033 36.5014C38.6936 36.5014 39.2533 37.0611 39.2533 37.7514C39.2533 38.4418 38.6936 39.0014 38.0033 39.0014C37.3129 39.0014 36.7533 38.4418 36.7533 37.7514C36.7533 37.0611 37.3129 36.5014 38.0033 36.5014ZM43.2577 36.5014C43.9481 36.5014 44.5077 37.0611 44.5077 37.7514C44.5077 38.4418 43.9481 39.0014 43.2577 39.0014C42.5674 39.0014 42.0077 38.4418 42.0077 37.7514C42.0077 37.0611 42.5674 36.5014 43.2577 36.5014ZM45.75 28.5H30.25C29.2835 28.5 28.5 29.2835 28.5 30.25V32.003H47.5V30.25C47.5 29.2835 46.7165 28.5 45.75 28.5Z" fill="#4D4959"/>
</svg>
