<svg width="208" height="60" viewBox="0 0 208 60" fill="none" xmlns="http://www.w3.org/2000/svg">
<path fill-rule="evenodd" clip-rule="evenodd" d="M33.0411 33.9714C35.2389 33.7492 38.3415 32.9514 40.9286 31.2504C43.6402 29.4676 45.7521 26.7254 45.7521 22.5721C45.7521 18.2899 44.2504 15.724 42.4731 14.2152C40.663 12.6785 38.4828 12.1675 37.0615 12.1675H13.0479C12.2712 12.1675 11.8846 13.1065 12.4369 13.6512L33.0411 33.9714Z" fill="#EA0022"/>
<path d="M40.9286 31.2504C38.3415 32.9514 35.2389 33.7492 33.0411 33.9714L12.4369 13.6512C11.8846 13.1065 12.2712 12.1675 13.0479 12.1675H37.0615C38.4828 12.1675 40.663 12.6785 42.4731 14.2152C44.2504 15.724 45.7521 18.2899 45.7521 22.5721C45.7521 26.7254 43.6402 29.4676 40.9286 31.2504Z" fill="#EA0022"/>
<path d="M40.9294 32.1178C38.3423 33.8187 35.2397 34.6166 33.0419 34.8388L12.8273 14.028L29.3382 27.1512C33.0419 30.0662 36.7779 29.8072 40.2986 28.1542C42.1547 27.2828 44.302 25.6488 45.9397 21.2553C46.1436 22.7044 46.9002 28.0768 40.9294 32.1178Z" fill="#9B0003"/>
<path fill-rule="evenodd" clip-rule="evenodd" d="M29.2421 47.7163L15.066 34.2309C14.5128 33.7046 13.5972 34.0958 13.5972 34.8584V46.8493C13.5972 47.3281 13.9863 47.7163 14.4663 47.7163H29.2421Z" fill="#BDBDBD"/>
<path d="M15.066 34.2309L29.2421 47.7163H14.4663C13.9863 47.7163 13.5972 47.3281 13.5972 46.8493V34.8584C13.5972 34.0958 14.5128 33.7046 15.066 34.2309Z" fill="#BDBDBD"/>
<path opacity="0.58" d="M14.869 43.6773L14.8691 41.3136C14.9207 43.3562 15.3121 44.7355 16.4005 45.3377C18.3627 46.3818 17.6214 46.5123 15.4629 46.3818C14.81 46.3423 14.8957 44.7348 14.869 43.6773Z" fill="white"/>
<path d="M21.9948 40.8533C26.5408 46.7948 21.3508 48.2801 18.1876 48.2801H29.9502L21.9948 40.8533Z" fill="#797979"/>
<path opacity="0.58" d="M37.2674 13.1858H30.8776C34.7907 13.1858 38.2904 13.9061 39.4957 15.9511C40.7105 18.648 43.6044 18.4887 42.4305 16.2765C41.2566 14.0642 39.2933 13.1858 37.2674 13.1858Z" fill="white"/>
<path fill-rule="evenodd" clip-rule="evenodd" d="M11.2144 14.8846C9.55736 13.2504 10.7173 10.4336 13.0473 10.4336H37.0609C38.8262 10.4336 41.4258 11.0498 43.5989 12.8946C45.8048 14.7673 47.4896 17.8372 47.4896 22.5723C47.4896 27.4363 44.9665 30.6721 41.8844 32.6985C39.5259 34.2492 36.8211 35.1103 34.5942 35.5039L44.2227 44.9997C45.8798 46.634 44.7199 49.4508 42.3899 49.4508H14.4654C13.0255 49.4508 11.8583 48.2862 11.8583 46.8496V34.8587C11.8583 32.5711 14.6051 31.3975 16.2646 32.9762L31.76 47.7167H42.3899C43.1665 47.7167 43.5532 46.7777 43.0008 46.233L11.2144 14.8846ZM40.928 31.2505C38.3409 32.9515 35.2383 33.7493 33.0405 33.9716L12.4363 13.6514C11.884 13.1066 12.2706 12.1677 13.0473 12.1677H37.0609C38.4822 12.1677 40.6624 12.6787 42.4725 14.2153C44.2498 15.7241 45.7515 18.2901 45.7515 22.5723C45.7515 26.7255 43.6397 29.4677 40.928 31.2505ZM29.2412 47.7167L15.0651 34.2312C14.512 33.705 13.5964 34.0962 13.5964 34.8587V46.8496C13.5964 47.3285 13.9855 47.7167 14.4654 47.7167H29.2412Z" fill="#4A4949"/>
<path fill-rule="evenodd" clip-rule="evenodd" d="M10.9095 15.1929C8.97623 13.2863 10.3294 10 13.0478 10H37.0615C38.9127 10 41.6172 10.6425 43.881 12.5644C46.1941 14.528 47.9247 17.7239 47.9247 22.5722C47.9247 27.6139 45.2988 30.9731 42.1241 33.0604C39.9889 34.4642 37.5837 35.3143 35.4833 35.7706L44.5287 44.6913C46.462 46.598 45.1087 49.8842 42.3904 49.8842H14.466C12.7861 49.8842 11.4243 48.5256 11.4243 46.8496V34.8586C11.4243 32.1897 14.6289 30.8206 16.565 32.6623L31.9345 47.2831H42.3904C42.7787 47.2831 42.972 46.8136 42.6959 46.5412L10.9095 15.1929ZM28.1564 47.2831L14.7658 34.5449C14.4892 34.2818 14.0314 34.4774 14.0314 34.8586V46.8496C14.0314 47.089 14.226 47.2831 14.466 47.2831H28.1564ZM33.1996 33.5184C35.3296 33.274 38.2517 32.4912 40.6895 30.8885C43.3085 29.1666 45.3175 26.5478 45.3175 22.5722C45.3175 18.4032 43.8616 15.9633 42.1915 14.5454C40.4721 13.0858 38.3967 12.6011 37.0615 12.6011H13.0478C12.6595 12.6011 12.4661 13.0706 12.7423 13.343L33.1996 33.5184Z" fill="#4A4949"/>
</svg>
