<?xml version="1.0" encoding="UTF-8" standalone="no" ?>
<!DOCTYPE svg PUBLIC "-//W3C//DTD SVG 1.1//EN" "http://www.w3.org/Graphics/SVG/1.1/DTD/svg11.dtd">
<svg xmlns="http://www.w3.org/2000/svg" xmlns:xlink="http://www.w3.org/1999/xlink" version="1.1" width="1080" height="1080" viewBox="0 0 1080 1080" xml:space="preserve">
<desc>Created with Fabric.js 5.2.4</desc>
<defs>
</defs>
<g transform="matrix(1 0 0 1 540 540)" id="abfac10f-968d-4f7b-858c-2174a26e5db1"  >
<rect style="stroke: none; stroke-width: 1; stroke-dasharray: none; stroke-linecap: butt; stroke-dashoffset: 0; stroke-linejoin: miter; stroke-miterlimit: 4; fill: rgb(255,255,255); fill-rule: nonzero; opacity: 1; visibility: hidden;" vector-effect="non-scaling-stroke"  x="-540" y="-540" rx="0" ry="0" width="1080" height="1080" />
</g>
<g transform="matrix(1 0 0 1 540 540)" id="e422f484-6ab8-4126-b0a7-b34db45330b9"  >
</g>
<g transform="matrix(0.44 0 0 0.48 529.19 550.7)"  >
<g style="" vector-effect="non-scaling-stroke"   >
		<g transform="matrix(1 0 0 1 0 -6.87)"  >
<path style="stroke: none; stroke-width: 1; stroke-dasharray: none; stroke-linecap: butt; stroke-dashoffset: 0; stroke-linejoin: miter; stroke-miterlimit: 4; fill: rgb(234,0,34); fill-rule: evenodd; opacity: 1;" vector-effect="non-scaling-stroke"  transform=" translate(-28.96, -23.07)" d="M 33.0411 33.9714 C 35.2389 33.7492 38.3415 32.9514 40.9286 31.2504 C 43.6402 29.4676 45.7521 26.7254 45.7521 22.5721 C 45.7521 18.2899 44.2504 15.724 42.4731 14.2152 C 40.663 12.6785 38.4828 12.1675 37.0615 12.1675 L 13.0479 12.1675 C 12.2712 12.1675 11.8846 13.1065 12.4369 13.6512 L 33.0411 33.9714 Z" stroke-linecap="round" />
</g>
		<g transform="matrix(1 0 0 1 0 -6.87)"  >
<path style="stroke: none; stroke-width: 1; stroke-dasharray: none; stroke-linecap: butt; stroke-dashoffset: 0; stroke-linejoin: miter; stroke-miterlimit: 4; fill: rgb(234,0,34); fill-rule: nonzero; opacity: 1;" vector-effect="non-scaling-stroke"  transform=" translate(-28.96, -23.07)" d="M 40.9286 31.2504 C 38.3415 32.9514 35.2389 33.7492 33.0411 33.9714 L 12.4369 13.6512 C 11.8846 13.1065 12.2712 12.1675 13.0479 12.1675 L 37.0615 12.1675 C 38.4828 12.1675 40.663 12.6785 42.4731 14.2152 C 44.2504 15.724 45.7521 18.2899 45.7521 22.5721 C 45.7521 26.7254 43.6402 29.4676 40.9286 31.2504 Z" stroke-linecap="round" />
</g>
		<g transform="matrix(1 0 0 1 0.49 -5.51)"  >
<path style="stroke: none; stroke-width: 1; stroke-dasharray: none; stroke-linecap: butt; stroke-dashoffset: 0; stroke-linejoin: miter; stroke-miterlimit: 4; fill: rgb(155,0,3); fill-rule: nonzero; opacity: 1;" vector-effect="non-scaling-stroke"  transform=" translate(-29.46, -24.43)" d="M 40.9294 32.1178 C 38.3423 33.8187 35.2397 34.6166 33.0419 34.8388 L 12.8273 14.028 L 29.3382 27.1512 C 33.0419 30.0662 36.7779 29.8072 40.2986 28.1542 C 42.1547 27.2828 44.302 25.6488 45.9397 21.2553 C 46.1436 22.7044 46.9002 28.0768 40.9294 32.1178 Z" stroke-linecap="round" />
</g>
		<g transform="matrix(1 0 0 1 -7.54 10.91)"  >
<path style="stroke: none; stroke-width: 1; stroke-dasharray: none; stroke-linecap: butt; stroke-dashoffset: 0; stroke-linejoin: miter; stroke-miterlimit: 4; fill: rgb(189,189,189); fill-rule: evenodd; opacity: 1;" vector-effect="non-scaling-stroke"  transform=" translate(-21.42, -40.85)" d="M 29.2421 47.7163 L 15.066 34.2309 C 14.5128 33.7046 13.5972 34.0958 13.5972 34.8584 L 13.5972 46.8493 C 13.5972 47.3281 13.9863 47.7163 14.4663 47.7163 L 29.2421 47.7163 Z" stroke-linecap="round" />
</g>
		<g transform="matrix(1 0 0 1 -7.54 10.91)"  >
<path style="stroke: none; stroke-width: 1; stroke-dasharray: none; stroke-linecap: butt; stroke-dashoffset: 0; stroke-linejoin: miter; stroke-miterlimit: 4; fill: rgb(189,189,189); fill-rule: nonzero; opacity: 1;" vector-effect="non-scaling-stroke"  transform=" translate(-21.42, -40.85)" d="M 15.066 34.2309 L 29.2421 47.7163 L 14.4663 47.7163 C 13.9863 47.7163 13.5972 47.3281 13.5972 46.8493 L 13.5972 34.8584 C 13.5972 34.0958 14.5128 33.7046 15.066 34.2309 Z" stroke-linecap="round" />
</g>
		<g transform="matrix(1 0 0 1 -12.76 13.93)"  >
<path style="stroke: none; stroke-width: 1; stroke-dasharray: none; stroke-linecap: butt; stroke-dashoffset: 0; stroke-linejoin: miter; stroke-miterlimit: 4; fill: rgb(255,255,255); fill-rule: nonzero; opacity: 0.58;" vector-effect="non-scaling-stroke"  transform=" translate(-16.2, -43.87)" d="M 14.869 43.6773 L 14.8691 41.3136 C 14.9207 43.3562 15.3121 44.7355 16.4005 45.3377 C 18.3627 46.3818 17.6214 46.5123 15.4629 46.3818 C 14.81 46.3423 14.8957 44.7348 14.869 43.6773 Z" stroke-linecap="round" />
</g>
		<g transform="matrix(1 0 0 1 -4.89 14.62)"  >
<path style="stroke: none; stroke-width: 1; stroke-dasharray: none; stroke-linecap: butt; stroke-dashoffset: 0; stroke-linejoin: miter; stroke-miterlimit: 4; fill: rgb(121,121,121); fill-rule: nonzero; opacity: 1;" vector-effect="non-scaling-stroke"  transform=" translate(-24.07, -44.57)" d="M 21.9948 40.8533 C 26.5408 46.7948 21.3508 48.2801 18.1876 48.2801 L 29.9502 48.2801 L 21.9948 40.8533 Z" stroke-linecap="round" />
</g>
		<g transform="matrix(1 0 0 1 7.83 -14.37)"  >
<path style="stroke: none; stroke-width: 1; stroke-dasharray: none; stroke-linecap: butt; stroke-dashoffset: 0; stroke-linejoin: miter; stroke-miterlimit: 4; fill: rgb(255,255,255); fill-rule: nonzero; opacity: 0.58;" vector-effect="non-scaling-stroke"  transform=" translate(-36.79, -15.57)" d="M 37.2674 13.1858 L 30.8776 13.1858 C 34.7907 13.1858 38.2904 13.9061 39.4957 15.9511 C 40.7105 18.648 43.6044 18.4887 42.4305 16.2765 C 41.2566 14.0642 39.2933 13.1858 37.2674 13.1858 Z" stroke-linecap="round" />
</g>
		<g transform="matrix(1 0 0 1 0 0)"  >
<path style="stroke: none; stroke-width: 1; stroke-dasharray: none; stroke-linecap: butt; stroke-dashoffset: 0; stroke-linejoin: miter; stroke-miterlimit: 4; fill: rgb(74,73,73); fill-rule: evenodd; opacity: 1;" vector-effect="non-scaling-stroke"  transform=" translate(-28.96, -29.94)" d="M 11.2144 14.8846 C 9.55736 13.2504 10.7173 10.4336 13.0473 10.4336 L 37.0609 10.4336 C 38.8262 10.4336 41.4258 11.0498 43.5989 12.8946 C 45.8048 14.7673 47.4896 17.8372 47.4896 22.5723 C 47.4896 27.4363 44.9665 30.6721 41.8844 32.6985 C 39.5259 34.2492 36.8211 35.1103 34.5942 35.5039 L 44.2227 44.9997 C 45.8798 46.634 44.7199 49.4508 42.3899 49.4508 L 14.4654 49.4508 C 13.0255 49.4508 11.8583 48.2862 11.8583 46.8496 L 11.8583 34.8587 C 11.8583 32.5711 14.6051 31.3975 16.2646 32.9762 L 31.76 47.7167 L 42.3899 47.7167 C 43.1665 47.7167 43.5532 46.7777 43.0008 46.233 L 11.2144 14.8846 Z M 40.928 31.2505 C 38.3409 32.9515 35.2383 33.7493 33.0405 33.9716 L 12.4363 13.6514 C 11.884 13.1066 12.2706 12.1677 13.0473 12.1677 L 37.0609 12.1677 C 38.4822 12.1677 40.6624 12.6787 42.4725 14.2153 C 44.2498 15.7241 45.7515 18.2901 45.7515 22.5723 C 45.7515 26.7255 43.6397 29.4677 40.928 31.2505 Z M 29.2412 47.7167 L 15.0651 34.2312 C 14.512 33.705 13.5964 34.0962 13.5964 34.8587 L 13.5964 46.8496 C 13.5964 47.3285 13.9855 47.7167 14.4654 47.7167 L 29.2412 47.7167 Z" stroke-linecap="round" />
</g>
		<g transform="matrix(1 0 0 1 0 0)"  >
<path style="stroke: none; stroke-width: 1; stroke-dasharray: none; stroke-linecap: butt; stroke-dashoffset: 0; stroke-linejoin: miter; stroke-miterlimit: 4; fill: rgb(74,73,73); fill-rule: evenodd; opacity: 1;" vector-effect="non-scaling-stroke"  transform=" translate(-28.96, -29.94)" d="M 10.9095 15.1929 C 8.97623 13.2863 10.3294 10 13.0478 10 L 37.0615 10 C 38.9127 10 41.6172 10.6425 43.881 12.5644 C 46.1941 14.528 47.9247 17.7239 47.9247 22.5722 C 47.9247 27.6139 45.2988 30.9731 42.1241 33.0604 C 39.9889 34.4642 37.5837 35.3143 35.4833 35.7706 L 44.5287 44.6913 C 46.462 46.598 45.1087 49.8842 42.3904 49.8842 L 14.466 49.8842 C 12.7861 49.8842 11.4243 48.5256 11.4243 46.8496 L 11.4243 34.8586 C 11.4243 32.1897 14.6289 30.8206 16.565 32.6623 L 31.9345 47.2831 L 42.3904 47.2831 C 42.7787 47.2831 42.972 46.8136 42.6959 46.5412 L 10.9095 15.1929 Z M 28.1564 47.2831 L 14.7658 34.5449 C 14.4892 34.2818 14.0314 34.4774 14.0314 34.8586 L 14.0314 46.8496 C 14.0314 47.089 14.226 47.2831 14.466 47.2831 L 28.1564 47.2831 Z M 33.1996 33.5184 C 35.3296 33.274 38.2517 32.4912 40.6895 30.8885 C 43.3085 29.1666 45.3175 26.5478 45.3175 22.5722 C 45.3175 18.4032 43.8616 15.9633 42.1915 14.5454 C 40.4721 13.0858 38.3967 12.6011 37.0615 12.6011 L 13.0478 12.6011 C 12.6595 12.6011 12.4661 13.0706 12.7423 13.343 L 33.1996 33.5184 Z" stroke-linecap="round" />
</g>
</g>
</g>
</svg>